<svg width="30" height="30" viewBox="0 0 30 30" fill="none" xmlns="http://www.w3.org/2000/svg">
<path d="M23.75 3.75H6.25C4.875 3.75 3.75 4.875 3.75 6.25V23.75C3.75 25.125 4.875 26.25 6.25 26.25H23.75C25.125 26.25 26.25 25.125 26.25 23.75V6.25C26.25 4.875 25.125 3.75 23.75 3.75ZM23.75 23.75H6.25V6.25H23.75V23.75Z" fill="#000135"/>
<path d="M11.25 15H8.75V21.25H11.25V15Z" fill="#000135"/>
<path d="M21.25 8.75H18.75V21.25H21.25V8.75Z" fill="#000135"/>
<path d="M16.25 17.5H13.75V21.25H16.25V17.5Z" fill="#000135"/>
<path d="M16.25 12.5H13.75V15H16.25V12.5Z" fill="#000135"/>
</svg>
