<svg width="20" height="13" viewBox="0 0 20 13" fill="none" xmlns="http://www.w3.org/2000/svg">
<path d="M10 1.99992C13.1584 1.99992 15.975 3.77492 17.35 6.58325C15.975 9.39159 13.1584 11.1666 10 11.1666C6.84171 11.1666 4.02504 9.39159 2.65004 6.58325C4.02504 3.77492 6.84171 1.99992 10 1.99992ZM10 0.333252C5.83337 0.333252 2.27504 2.92492 0.833374 6.58325C2.27504 10.2416 5.83337 12.8333 10 12.8333C14.1667 12.8333 17.725 10.2416 19.1667 6.58325C17.725 2.92492 14.1667 0.333252 10 0.333252ZM10 4.49992C11.15 4.49992 12.0834 5.43325 12.0834 6.58325C12.0834 7.73325 11.15 8.66658 10 8.66658C8.85004 8.66658 7.91671 7.73325 7.91671 6.58325C7.91671 5.43325 8.85004 4.49992 10 4.49992ZM10 2.83325C7.93337 2.83325 6.25004 4.51659 6.25004 6.58325C6.25004 8.64992 7.93337 10.3333 10 10.3333C12.0667 10.3333 13.75 8.64992 13.75 6.58325C13.75 4.51659 12.0667 2.83325 10 2.83325Z" fill="#000135"/>
</svg>
