<svg width="20" height="13" viewBox="0 0 20 13" fill="none" xmlns="http://www.w3.org/2000/svg">
<path d="M9.99999 2C13.1583 2 15.975 3.775 17.35 6.58333C15.975 9.39167 13.1583 11.1667 9.99999 11.1667C6.84166 11.1667 4.02499 9.39167 2.64999 6.58333C4.02499 3.775 6.84166 2 9.99999 2ZM9.99999 0.333334C5.83333 0.333334 2.27499 2.925 0.833328 6.58333C2.27499 10.2417 5.83333 12.8333 9.99999 12.8333C14.1667 12.8333 17.725 10.2417 19.1667 6.58333C17.725 2.925 14.1667 0.333334 9.99999 0.333334ZM9.99999 4.5C11.15 4.5 12.0833 5.43333 12.0833 6.58333C12.0833 7.73333 11.15 8.66667 9.99999 8.66667C8.84999 8.66667 7.91666 7.73333 7.91666 6.58333C7.91666 5.43333 8.84999 4.5 9.99999 4.5ZM9.99999 2.83333C7.93333 2.83333 6.24999 4.51667 6.24999 6.58333C6.24999 8.65 7.93333 10.3333 9.99999 10.3333C12.0667 10.3333 13.75 8.65 13.75 6.58333C13.75 4.51667 12.0667 2.83333 9.99999 2.83333Z" fill="#9BB4BC"/>
</svg>
