<svg width="12" height="11" viewBox="0 0 12 11" fill="none" xmlns="http://www.w3.org/2000/svg">
<path d="M0.885 8.795C0.885 7.885 0.965 7.105 1.125 6.455C1.295 5.805 1.56 5.27 1.92 4.85C2.28 4.43 2.74 4.11 3.3 3.89C3.87 3.67 4.56 3.535 5.37 3.485V0.289999H6.69V3.485C7.44 3.535 8.095 3.665 8.655 3.875C9.215 4.085 9.68 4.4 10.05 4.82C10.43 5.23 10.71 5.76 10.89 6.41C11.08 7.05 11.175 7.83 11.175 8.75V11H9.84V8.78C9.84 8.04 9.77 7.415 9.63 6.905C9.5 6.385 9.305 5.965 9.045 5.645C8.785 5.325 8.455 5.085 8.055 4.925C7.665 4.765 7.21 4.665 6.69 4.625V8.54H5.37V4.625C4.8 4.665 4.315 4.77 3.915 4.94C3.515 5.1 3.19 5.34 2.94 5.66C2.69 5.98 2.505 6.395 2.385 6.905C2.275 7.415 2.22 8.035 2.22 8.765V11H0.885V8.795Z" fill="#000135"/>
</svg>
