<svg width="26" height="26" viewBox="0 0 26 26" fill="none" xmlns="http://www.w3.org/2000/svg">
<path d="M22.2875 14.225C22.3375 13.825 22.375 13.425 22.375 13C22.375 12.575 22.3375 12.175 22.2875 11.775L24.925 9.7125C25.1625 9.525 25.225 9.1875 25.075 8.9125L22.575 4.5875C22.4625 4.3875 22.25 4.275 22.025 4.275C21.95 4.275 21.875 4.2875 21.8125 4.3125L18.7 5.5625C18.05 5.0625 17.35 4.65 16.5875 4.3375L16.1125 1.025C16.075 0.725 15.8125 0.5 15.5 0.5H10.5C10.1875 0.5 9.92498 0.725 9.88748 1.025L9.41248 4.3375C8.64998 4.65 7.94998 5.075 7.29998 5.5625L4.18748 4.3125C4.11248 4.2875 4.03748 4.275 3.96248 4.275C3.74998 4.275 3.53748 4.3875 3.42498 4.5875L0.924982 8.9125C0.762482 9.1875 0.837482 9.525 1.07498 9.7125L3.71248 11.775C3.66248 12.175 3.62498 12.5875 3.62498 13C3.62498 13.4125 3.66248 13.825 3.71248 14.225L1.07498 16.2875C0.837482 16.475 0.774982 16.8125 0.924982 17.0875L3.42498 21.4125C3.53748 21.6125 3.74998 21.725 3.97498 21.725C4.04998 21.725 4.12498 21.7125 4.18748 21.6875L7.29998 20.4375C7.94998 20.9375 8.64998 21.35 9.41248 21.6625L9.88748 24.975C9.92498 25.275 10.1875 25.5 10.5 25.5H15.5C15.8125 25.5 16.075 25.275 16.1125 24.975L16.5875 21.6625C17.35 21.35 18.05 20.925 18.7 20.4375L21.8125 21.6875C21.8875 21.7125 21.9625 21.725 22.0375 21.725C22.25 21.725 22.4625 21.6125 22.575 21.4125L25.075 17.0875C25.225 16.8125 25.1625 16.475 24.925 16.2875L22.2875 14.225ZM19.8125 12.0875C19.8625 12.475 19.875 12.7375 19.875 13C19.875 13.2625 19.85 13.5375 19.8125 13.9125L19.6375 15.325L20.75 16.2L22.1 17.25L21.225 18.7625L19.6375 18.125L18.3375 17.6L17.2125 18.45C16.675 18.85 16.1625 19.15 15.65 19.3625L14.325 19.9L14.125 21.3125L13.875 23H12.125L11.8875 21.3125L11.6875 19.9L10.3625 19.3625C9.82498 19.1375 9.32498 18.85 8.82498 18.475L7.68748 17.6L6.36248 18.1375L4.77498 18.775L3.89998 17.2625L5.24998 16.2125L6.36248 15.3375L6.18748 13.925C6.14998 13.5375 6.12498 13.25 6.12498 13C6.12498 12.75 6.14998 12.4625 6.18748 12.0875L6.36248 10.675L5.24998 9.8L3.89998 8.75L4.77498 7.2375L6.36248 7.875L7.66248 8.4L8.78748 7.55C9.32498 7.15 9.83748 6.85 10.35 6.6375L11.675 6.1L11.875 4.6875L12.125 3H13.8625L14.1 4.6875L14.3 6.1L15.625 6.6375C16.1625 6.8625 16.6625 7.15 17.1625 7.525L18.3 8.4L19.625 7.8625L21.2125 7.225L22.0875 8.7375L20.75 9.8L19.6375 10.675L19.8125 12.0875ZM13 8C10.2375 8 7.99998 10.2375 7.99998 13C7.99998 15.7625 10.2375 18 13 18C15.7625 18 18 15.7625 18 13C18 10.2375 15.7625 8 13 8ZM13 15.5C11.625 15.5 10.5 14.375 10.5 13C10.5 11.625 11.625 10.5 13 10.5C14.375 10.5 15.5 11.625 15.5 13C15.5 14.375 14.375 15.5 13 15.5Z" fill="#000135"/>
</svg>
